<svg xmlns="http://www.w3.org/2000/svg" xmlns:xlink="http://www.w3.org/1999/xlink" width="500" zoomAndPan="magnify" viewBox="0 0 375 374.999991" height="500" preserveAspectRatio="xMidYMid meet" version="1.0"><path fill="#ff9900" d="M 168.679688 25.527344 C 177.023438 25.527344 183.78125 32.507812 183.78125 41.089844 C 183.78125 49.679688 177.023438 56.636719 168.679688 56.636719 C 160.34375 56.636719 153.578125 49.679688 153.578125 41.089844 C 153.574219 32.507812 160.339844 25.527344 168.679688 25.527344 Z M 168.679688 0.152344 C 151.441406 0.183594 136.136719 11.515625 130.765625 28.289062 L 59.011719 28.417969 C 43.277344 28.417969 29.679688 40.183594 29.679688 55.511719 L 29.679688 348.21875 C 29.679688 363.539062 43.277344 375.3125 59.011719 375.3125 L 278.363281 375.3125 C 294.097656 375.3125 307.695312 363.539062 307.695312 348.21875 L 307.695312 303.898438 L 293.542969 315.207031 L 293.542969 348.214844 C 293.542969 355.125 287.285156 361.226562 278.363281 361.226562 L 59.003906 361.226562 C 50.105469 361.226562 43.808594 355.125 43.808594 348.214844 L 43.808594 55.515625 C 43.808594 48.609375 50.105469 42.5 59.003906 42.5 L 92.058594 42.5 L 92.058594 68.140625 C 92.058594 74.804688 97.515625 80.179688 104.242188 80.179688 L 233.105469 80.179688 C 239.847656 80.179688 245.273438 74.808594 245.273438 68.140625 L 245.273438 42.5 L 278.355469 42.5 C 287.273438 42.5 293.53125 48.609375 293.53125 55.515625 L 293.53125 115.421875 L 307.6875 120.335938 L 307.6875 55.515625 C 307.6875 40.191406 294.085938 28.421875 278.355469 28.421875 L 206.570312 28.296875 C 201.203125 11.539062 185.898438 0.183594 168.679688 0.152344 Z M 168.679688 0.152344 " fill-opacity="1" fill-rule="evenodd"/><path fill="#ff9900" d="M 251.652344 172.21875 C 264.367188 172.21875 274.683594 182.992188 274.683594 196.269531 C 274.65625 204.222656 270.886719 211.664062 264.570312 216.117188 L 271.449219 245.523438 C 271.984375 248.738281 269.621094 251.4375 267.316406 251.4375 L 235.984375 251.4375 C 233.695312 251.4375 231.3125 248.738281 231.851562 245.523438 L 238.730469 216.164062 C 232.433594 211.6875 228.644531 204.246094 228.644531 196.269531 C 228.636719 182.992188 238.929688 172.21875 251.652344 172.21875 Z M 251.652344 114.257812 L 158.269531 146.703125 L 158.269531 181.949219 C 158.269531 253.800781 195.746094 297.066406 251.652344 326.664062 C 307.566406 297.066406 345.050781 253.796875 345.050781 181.949219 L 345.050781 146.703125 Z M 251.652344 114.257812 " fill-opacity="1" fill-rule="nonzero"/><path fill="#ff9900" d="M 73.1875 139.625 C 63.773438 139.625 63.773438 153.753906 73.1875 153.753906 L 129.546875 153.753906 C 138.980469 153.753906 138.980469 139.625 129.546875 139.625 Z M 73.1875 139.625 " fill-opacity="1" fill-rule="nonzero"/><path fill="#ff9900" d="M 73.1875 171.511719 C 63.773438 171.511719 63.773438 185.644531 73.1875 185.644531 L 129.546875 185.644531 C 138.980469 185.644531 138.980469 171.511719 129.546875 171.511719 Z M 73.1875 171.511719 " fill-opacity="1" fill-rule="nonzero"/><path fill="#ff9900" d="M 72.507812 203.398438 C 63.367188 204.105469 64.039062 217.699219 73.1875 217.503906 L 129.546875 217.503906 C 133.605469 217.722656 137.007812 214.511719 137.007812 210.453125 C 137.007812 206.390625 133.605469 203.175781 129.546875 203.398438 L 73.1875 203.398438 C 72.96875 203.398438 72.726562 203.398438 72.507812 203.398438 Z M 72.507812 203.398438 " fill-opacity="1" fill-rule="nonzero"/><path fill="#ff9900" d="M 73.1875 235.265625 C 63.773438 235.265625 63.773438 249.390625 73.1875 249.390625 L 129.546875 249.390625 C 138.980469 249.390625 138.980469 235.265625 129.546875 235.265625 Z M 73.1875 235.265625 " fill-opacity="1" fill-rule="nonzero"/><path fill="#ff9900" d="M 72.507812 267.152344 C 63.367188 267.832031 64.039062 281.433594 73.1875 281.230469 L 152.722656 281.230469 C 156.761719 281.472656 160.167969 278.242188 160.167969 274.203125 C 160.167969 270.144531 156.761719 266.914062 152.722656 267.15625 L 73.1875 267.15625 C 72.96875 267.125 72.726562 267.125 72.507812 267.152344 Z M 72.507812 267.152344 " fill-opacity="1" fill-rule="nonzero"/><path fill="#ff9900" d="M 73.1875 298.992188 C 63.773438 298.992188 63.773438 313.117188 73.1875 313.117188 L 168.414062 313.117188 C 177.828125 313.117188 177.828125 298.992188 168.414062 298.992188 Z M 73.1875 298.992188 " fill-opacity="1" fill-rule="nonzero"/></svg>