<svg xmlns="http://www.w3.org/2000/svg" xmlns:xlink="http://www.w3.org/1999/xlink" width="1500" zoomAndPan="magnify" viewBox="0 0 1125 299.999988" height="400" preserveAspectRatio="xMidYMid meet" version="1.0"><defs><g/><clipPath id="64ed07dba6"><path d="M 30 19.519531 L 292.5 19.519531 L 292.5 280.519531 L 30 280.519531 Z M 30 19.519531 " clip-rule="nonzero"/></clipPath></defs><g clip-path="url(#64ed07dba6)"><path fill="#ff9900" d="M 161.785156 176.558594 C 135.789062 176.835938 115.109375 154.921875 116.023438 128.9375 C 116.199219 123.941406 116.929688 118.894531 118.085938 113.863281 C 122.136719 119.3125 128.308594 124.835938 137.386719 130.488281 C 124.597656 116.945312 123.453125 104.695312 126.242188 93.246094 C 127.316406 88.828125 129.03125 84.585938 131.1875 80.578125 C 143.519531 57.65625 159.160156 40 161.085938 37.859375 C 154.164062 70.484375 213.648438 103.484375 163.648438 147.410156 C 187.820312 132.460938 196.335938 118.136719 197.691406 103.949219 C 202.941406 111.882812 206.597656 120.425781 206.597656 131.253906 C 206.597656 156.109375 186.582031 176.292969 161.785156 176.558594 Z M 202.257812 191.695312 C 201.355469 193.984375 199.34375 195.652344 196.921875 196.097656 C 186.339844 198.046875 174.207031 199.15625 161.296875 199.15625 C 148.386719 199.15625 136.253906 198.046875 125.667969 196.097656 C 123.25 195.652344 121.238281 193.984375 120.335938 191.695312 C 118.296875 186.53125 122.675781 181.121094 128.152344 182.035156 C 138.132812 183.714844 149.386719 184.65625 161.296875 184.65625 C 173.207031 184.65625 184.460938 183.714844 194.441406 182.035156 C 199.917969 181.121094 204.296875 186.53125 202.257812 191.695312 Z M 182.855469 242.640625 L 139.738281 242.640625 L 123.664062 200.136719 C 135.128906 202.335938 148.070312 203.496094 161.296875 203.496094 C 174.523438 203.496094 187.464844 202.335938 198.929688 200.136719 Z M 161.296875 19.53125 C 88.804688 19.53125 30.042969 78.296875 30.042969 150.789062 C 30.042969 216.417969 78.214844 270.796875 141.132812 280.503906 L 137.90625 256.484375 C 135.273438 256.484375 133.140625 254.355469 133.140625 251.722656 C 133.140625 249.09375 135.273438 246.957031 137.90625 246.957031 L 184.6875 246.957031 C 187.320312 246.957031 189.453125 249.09375 189.453125 251.722656 C 189.453125 254.355469 187.320312 256.484375 184.6875 256.484375 L 181.464844 280.503906 C 244.378906 270.796875 292.550781 216.417969 292.550781 150.789062 C 292.550781 78.296875 233.789062 19.53125 161.296875 19.53125 " fill-opacity="1" fill-rule="nonzero"/></g><g fill="#000000" fill-opacity="1"><g transform="translate(312.573395, 245.750004)"><g><path d="M 81 -189.75 L 7 -189.75 C 16.25 -175.5 16.25 -151.75 16.25 -142.25 L 16.25 -19 C 16.25 -8.5 24.75 0 35.25 0 L 63.75 0 C 54.25 -14.25 54.25 -38 54.25 -47.5 L 54.25 -170.75 L 81 -170.75 C 104.75 -170.75 114.25 -156.5 114.25 -132.75 C 114.25 -109 106.25 -94.75 82.5 -94.75 L 76.5 -94.75 C 69 -94.75 67.75 -93.25 60.25 -76 L 82.5 -76 C 111 -76 152 -85.25 152 -132.75 C 152 -180.25 109.5 -189.75 81 -189.75 Z M 81 -189.75 "/></g></g></g><g fill="#ff9900" fill-opacity="1"><g transform="translate(385.574229, 225.342476)"><g><path d="M 26.390625 -37.015625 C 22.484375 -37.015625 19.195312 -33.109375 13.367188 -27.28125 L 13.367188 -31.191406 C 13.367188 -34.070312 11.035156 -36.398438 8.15625 -36.398438 L 2.332031 -36.398438 C 2.949219 -35.097656 3.566406 -30.503906 3.566406 -26.597656 L 3.566406 -5.140625 C 3.566406 -2.261719 5.894531 0.0703125 8.773438 0.0703125 L 14.667969 0.0703125 C 13.984375 -1.234375 13.367188 -5.828125 13.367188 -9.734375 L 13.367188 -23.375 C 20.496094 -30.503906 22.484375 -29.886719 22.484375 -23.992188 C 22.484375 -22.621094 23.992188 -21.730469 25.296875 -22.277344 L 32.21875 -28.585938 C 32.21875 -31.191406 32.21875 -37.015625 26.390625 -37.015625 Z M 26.390625 -37.015625 "/></g></g></g><g fill="#ff9900" fill-opacity="1"><g transform="translate(417.30962, 225.342476)"><g><path d="M 13.367188 -31.191406 C 13.367188 -34.070312 11.035156 -36.398438 8.15625 -36.398438 L 2.332031 -36.398438 C 2.949219 -35.097656 3.566406 -30.503906 3.566406 -26.597656 L 3.566406 -5.140625 C 3.566406 -2.261719 5.894531 0.0703125 8.773438 0.0703125 L 14.667969 0.0703125 C 13.984375 -1.234375 13.367188 -5.828125 13.367188 -9.734375 Z M 7.816406 -42.914062 C 11.105469 -42.980469 12.613281 -43.734375 16.179688 -51.960938 L 11.171875 -51.960938 C 7.882812 -51.890625 6.304688 -51.136719 2.8125 -42.914062 Z M 7.816406 -42.914062 "/></g></g></g><g fill="#ff9900" fill-opacity="1"><g transform="translate(434.376811, 225.342476)"><g><path d="M 32.902344 -36.398438 L 26.1875 -36.398438 C 28.585938 -33.933594 28.105469 -30.917969 26.804688 -26.941406 L 26.460938 -25.980469 L 20.015625 -7.539062 L 11.242188 -32.902344 C 10.488281 -34.960938 8.5 -36.398438 6.304688 -36.398438 L 0.273438 -36.398438 L 11.105469 -5.210938 C 12.203125 -2.054688 15.148438 0.0703125 18.441406 0.0703125 L 23.855469 0.0703125 L 35.371094 -32.902344 C 35.988281 -34.617188 34.6875 -36.398438 32.902344 -36.398438 Z M 32.902344 -36.398438 "/></g></g></g><g fill="#ff9900" fill-opacity="1"><g transform="translate(470.087684, 225.342476)"><g><path d="M 32.011719 -9.664062 L 32.011719 -21.457031 C 31.945312 -31.875 26.460938 -37.085938 17.34375 -37.085938 C 4.386719 -37.085938 1.300781 -27.96875 6.101562 -25.296875 C 6.101562 -28.449219 10.007812 -30.984375 14.121094 -30.984375 C 18.441406 -30.984375 20.839844 -29.066406 21.800781 -25.636719 C 12.269531 -21.9375 1.507812 -18.507812 1.507812 -9.664062 C 1.507812 -4.457031 5.347656 0.753906 11.378906 0.753906 C 15.011719 0.753906 19.742188 -2.332031 20.359375 -7.746094 C 16.246094 -4.457031 11.242188 -5.414062 11.242188 -11.652344 C 11.242188 -17.273438 17.617188 -21.183594 22.210938 -22.894531 C 22.277344 -22.414062 22.277344 -21.9375 22.277344 -21.457031 L 22.277344 -5.074219 C 22.277344 -2.195312 24.609375 0.136719 27.488281 0.136719 L 33.316406 0.136719 C 32.699219 -1.164062 32.011719 -5.757812 32.011719 -9.664062 Z M 32.011719 -9.664062 "/></g></g></g><g fill="#ff9900" fill-opacity="1"><g transform="translate(505.318764, 225.342476)"><g><path d="M 20.152344 -5.894531 C 15.421875 -5.894531 10.558594 -10.078125 10.558594 -18.164062 C 10.558594 -28.585938 14.601562 -32.492188 18.164062 -32.492188 C 22.554688 -32.492188 25.707031 -25.980469 22.003906 -20.359375 C 23.308594 -20.976562 24.882812 -21.183594 28.789062 -23.101562 C 32.902344 -25.226562 32.011719 -37.015625 17.824219 -37.015625 C 6.648438 -37.015625 1.300781 -28.242188 1.300781 -18.164062 C 1.300781 -8.089844 6.855469 0.683594 18.097656 0.683594 C 22.621094 0.683594 26.460938 -1.300781 28.378906 -3.90625 C 30.640625 -6.855469 30.023438 -10.144531 28.175781 -11.996094 C 27.214844 -8.5 24.472656 -5.894531 20.152344 -5.894531 Z M 20.152344 -5.894531 "/></g></g></g><g fill="#ff9900" fill-opacity="1"><g transform="translate(537.808126, 225.342476)"><g><path d="M 35.644531 -33.042969 C 36.261719 -34.6875 35.027344 -36.398438 33.316406 -36.398438 L 26.050781 -36.398438 C 28.652344 -33.796875 27.625 -29.269531 26.527344 -25.980469 L 20.429688 -7.265625 L 11.3125 -32.835938 C 10.625 -34.960938 8.636719 -36.398438 6.375 -36.398438 L -0.546875 -36.398438 L 11.171875 -5.347656 C 12.066406 -2.535156 14.53125 -0.480469 17.410156 -0.0703125 L 12.820312 10.96875 C 10.832031 15.5625 12.339844 18.234375 16.109375 18.234375 L 23.511719 18.234375 C 21.660156 16.453125 19.605469 12.476562 21.113281 7.675781 Z M 35.644531 -33.042969 "/></g></g></g><g fill="#000000" fill-opacity="1"><g transform="translate(593.777551, 245.750004)"><g><path d="M 143 -189.75 L 128.75 -189.75 C 133.5 -175.5 133.5 -151.75 133.5 -151.75 L 133.5 -52.5 L 60.25 -179.75 C 55.5 -187.25 48 -189.75 39 -189.75 L 10.25 -189.75 C 14.75 -175.5 14.75 -151.75 14.75 -151.75 L 14.75 -9.5 C 14.75 -4.25 19 0 24.25 0 L 43.25 0 C 38.5 -14.25 38.5 -38 38.5 -38 L 38.5 -141 L 122.5 2.5 L 157.25 -23.5 L 157.25 -175.5 C 157.25 -183.25 150.75 -189.75 143 -189.75 Z M 143 -189.75 "/></g></g></g><g fill="#ff9900" fill-opacity="1"><g transform="translate(756.971913, 222.023037)"><g><path d="M 15.277344 -30 C 5.222656 -30 1.054688 -22.886719 1.054688 -14.722656 C 1.054688 -6.554688 5.222656 0.554688 15.277344 0.554688 C 25.277344 0.554688 29.5 -6.554688 29.5 -14.722656 C 29.5 -22.886719 25.277344 -30 15.277344 -30 Z M 15.277344 -2.609375 C 12.109375 -2.609375 10 -6.277344 10 -14.722656 C 10 -23.164062 12.109375 -26.832031 15.277344 -26.832031 C 18.445312 -26.832031 20.554688 -23.164062 20.554688 -14.722656 C 20.554688 -6.277344 18.445312 -2.609375 15.277344 -2.609375 Z M 15.277344 -2.609375 "/></g></g></g><g fill="#ff9900" fill-opacity="1"><g transform="translate(787.580621, 222.023037)"><g><path d="M 13.386719 -11.554688 L 13.386719 -25.277344 L 16.832031 -25.277344 C 18.222656 -25.277344 19.445312 -26.109375 19.945312 -27.386719 L 20.777344 -29.5 L 13.386719 -29.5 L 13.386719 -35.832031 C 13.386719 -38.109375 11.5 -39.996094 9.167969 -39.996094 L 4.445312 -39.996094 C 4.945312 -38.941406 5.5 -35.277344 5.5 -32.109375 L 5.5 -29.441406 L 2.890625 -29.441406 C 1.5 -29.441406 0.277344 -28.609375 -0.277344 -27.332031 L -1.054688 -25.277344 L 5.5 -25.277344 L 5.5 -10.5 C 5.5 -1.554688 9.222656 0.609375 13.386719 0.554688 C 16.164062 0.554688 19.164062 -0.5 21.332031 -3.167969 C 15 -2.109375 13.386719 -7.054688 13.386719 -11.554688 Z M 13.386719 -11.554688 "/></g></g></g><g fill="#ff9900" fill-opacity="1"><g transform="translate(808.023459, 222.023037)"><g><path d="M 10.832031 -25.277344 C 10.832031 -27.609375 8.945312 -29.5 6.609375 -29.5 L 1.890625 -29.5 C 2.390625 -28.441406 2.890625 -24.722656 2.890625 -21.554688 L 2.890625 -4.167969 C 2.890625 -1.832031 4.777344 0.0546875 7.109375 0.0546875 L 11.886719 0.0546875 C 11.332031 -1 10.832031 -4.722656 10.832031 -7.886719 Z M 6.332031 -34.777344 C 9 -34.832031 10.222656 -35.441406 13.109375 -42.109375 L 9.054688 -42.109375 C 6.386719 -42.054688 5.109375 -41.441406 2.277344 -34.777344 Z M 6.332031 -34.777344 "/></g></g></g><g fill="#ff9900" fill-opacity="1"><g transform="translate(821.855707, 222.023037)"><g><path d="M 17.777344 -43.164062 C 10 -43.164062 6.554688 -38.054688 5.777344 -29.5 L 5.609375 -29.5 L 5.609375 -29.441406 L 3 -29.441406 C 1.609375 -29.441406 0.390625 -28.609375 -0.167969 -27.332031 L -0.945312 -25.277344 L 5.609375 -25.277344 L 5.609375 -4 C 5.609375 -1.777344 7.386719 0.0546875 9.609375 0.0546875 L 14.554688 0.0546875 C 14 -1 13.5 -4.722656 13.5 -7.886719 L 13.5 -25.277344 L 16.945312 -25.277344 C 18.277344 -25.277344 19.554688 -26.109375 20.054688 -27.386719 L 20.886719 -29.5 L 13.5 -29.5 L 13.5 -32.886719 C 13.5 -36.777344 13.722656 -39.109375 16.554688 -38.109375 C 17.332031 -37.832031 18.222656 -37.332031 19.445312 -36.5 C 20.554688 -35.71875 22.109375 -35.277344 22.832031 -36.441406 L 25.664062 -41.054688 C 22.5 -43.164062 18.832031 -43.164062 17.777344 -43.164062 Z M 17.777344 -43.164062 "/></g></g></g><g fill="#ff9900" fill-opacity="1"><g transform="translate(843.687332, 222.023037)"><g><path d="M 10.832031 -25.277344 C 10.832031 -27.609375 8.945312 -29.5 6.609375 -29.5 L 1.890625 -29.5 C 2.390625 -28.441406 2.890625 -24.722656 2.890625 -21.554688 L 2.890625 -4.167969 C 2.890625 -1.832031 4.777344 0.0546875 7.109375 0.0546875 L 11.886719 0.0546875 C 11.332031 -1 10.832031 -4.722656 10.832031 -7.886719 Z M 6.332031 -34.777344 C 9 -34.832031 10.222656 -35.441406 13.109375 -42.109375 L 9.054688 -42.109375 C 6.386719 -42.054688 5.109375 -41.441406 2.277344 -34.777344 Z M 6.332031 -34.777344 "/></g></g></g><g fill="#ff9900" fill-opacity="1"><g transform="translate(857.519576, 222.023037)"><g><path d="M 16.109375 -4.777344 C 13.277344 -4.777344 10.554688 -6.609375 9.277344 -10.109375 C 12.554688 -10.554688 25.441406 -11.445312 25.441406 -21 C 25.441406 -26.332031 21.164062 -30 14.722656 -30 C 5.667969 -30 1.054688 -22.886719 1.054688 -14.722656 C 1.054688 -6.554688 5.554688 0.554688 14.664062 0.554688 C 18.332031 0.554688 21.664062 -1.054688 23.277344 -3.167969 C 25.054688 -5.554688 24.886719 -8.222656 23.386719 -9.722656 C 22.609375 -6.886719 19.609375 -4.777344 16.109375 -4.777344 Z M 8.554688 -14.722656 C 8.554688 -23.164062 11.609375 -26.332031 14.445312 -26.332031 C 17.054688 -26.332031 18.386719 -24.722656 18.386719 -21 C 18.386719 -17.609375 15.722656 -14.164062 8.777344 -12.054688 C 8.609375 -12.886719 8.554688 -13.777344 8.554688 -14.722656 Z M 8.554688 -14.722656 "/></g></g></g><g fill="#ff9900" fill-opacity="1"><g transform="translate(884.073045, 222.023037)"><g><path d="M 21.386719 -30 C 18.222656 -30 15.554688 -26.832031 10.832031 -22.109375 L 10.832031 -25.277344 C 10.832031 -27.609375 8.945312 -29.5 6.609375 -29.5 L 1.890625 -29.5 C 2.390625 -28.441406 2.890625 -24.722656 2.890625 -21.554688 L 2.890625 -4.167969 C 2.890625 -1.832031 4.777344 0.0546875 7.109375 0.0546875 L 11.886719 0.0546875 C 11.332031 -1 10.832031 -4.722656 10.832031 -7.886719 L 10.832031 -18.945312 C 16.609375 -24.722656 18.222656 -24.222656 18.222656 -19.445312 C 18.222656 -18.332031 19.445312 -17.609375 20.5 -18.054688 L 26.109375 -23.164062 C 26.109375 -25.277344 26.109375 -30 21.386719 -30 Z M 21.386719 -30 "/></g></g></g></svg>