<svg xmlns="http://www.w3.org/2000/svg" xmlns:xlink="http://www.w3.org/1999/xlink" width="1600" zoomAndPan="magnify" viewBox="0 0 1200 262.499992" height="350" preserveAspectRatio="xMidYMid meet" version="1.0"><defs><g/><clipPath id="2764b48294"><path d="M 13.226562 17.046875 L 242.289062 17.046875 L 242.289062 244.613281 L 13.226562 244.613281 Z M 13.226562 17.046875 " clip-rule="nonzero"/></clipPath><clipPath id="7655e6f136"><path d="M 592 170 L 658 170 L 658 262 L 592 262 Z M 592 170 " clip-rule="nonzero"/></clipPath></defs><g clip-path="url(#2764b48294)"><path fill="#ff9900" d="M 128.320312 154.191406 C 105.617188 154.433594 87.554688 135.296875 88.351562 112.605469 C 88.507812 108.238281 89.144531 103.832031 90.15625 99.4375 C 93.691406 104.199219 99.082031 109.023438 107.007812 113.957031 C 95.839844 102.128906 94.84375 91.433594 97.277344 81.433594 C 98.21875 77.578125 99.714844 73.867188 101.597656 70.371094 C 112.367188 50.355469 126.023438 34.933594 127.707031 33.066406 C 121.660156 61.554688 173.609375 90.375 129.945312 128.738281 C 151.050781 115.679688 158.492188 103.171875 159.675781 90.78125 C 164.257812 97.710938 167.453125 105.171875 167.453125 114.625 C 167.453125 136.335938 149.972656 153.960938 128.320312 154.191406 Z M 163.664062 167.410156 C 162.875 169.410156 161.121094 170.867188 159.003906 171.257812 C 149.761719 172.957031 139.164062 173.925781 127.890625 173.925781 C 116.617188 173.925781 106.019531 172.957031 96.777344 171.257812 C 94.664062 170.867188 92.90625 169.410156 92.117188 167.410156 C 90.339844 162.902344 94.164062 158.175781 98.945312 158.976562 C 107.664062 160.441406 117.492188 161.261719 127.890625 161.261719 C 138.289062 161.261719 148.121094 160.441406 156.835938 158.976562 C 161.621094 158.175781 165.445312 162.902344 163.664062 167.410156 Z M 146.71875 211.902344 L 109.066406 211.902344 L 95.023438 174.78125 C 105.039062 176.703125 116.339844 177.714844 127.890625 177.714844 C 139.441406 177.714844 150.742188 176.703125 160.757812 174.78125 Z M 127.890625 17.058594 C 64.585938 17.058594 13.265625 68.378906 13.265625 131.6875 C 13.265625 189 55.335938 236.492188 110.28125 244.96875 L 107.464844 223.992188 C 105.164062 223.992188 103.300781 222.132812 103.300781 219.832031 C 103.300781 217.539062 105.164062 215.671875 107.464844 215.671875 L 148.320312 215.671875 C 150.617188 215.671875 152.480469 217.539062 152.480469 219.832031 C 152.480469 222.132812 150.617188 223.992188 148.320312 223.992188 L 145.503906 244.96875 C 200.449219 236.492188 242.519531 189 242.519531 131.6875 C 242.519531 68.378906 191.199219 17.058594 127.890625 17.058594 " fill-opacity="1" fill-rule="nonzero"/></g><g fill="#000000" fill-opacity="1"><g transform="translate(254.145002, 241.539931)"><g><path d="M 80.84375 -189.386719 L 6.988281 -189.386719 C 16.21875 -175.164062 16.21875 -151.460938 16.21875 -141.976562 L 16.21875 -18.964844 C 16.21875 -8.484375 24.703125 0 35.183594 0 L 63.628906 0 C 54.144531 -14.222656 54.144531 -37.925781 54.144531 -47.410156 L 54.144531 -170.421875 L 80.84375 -170.421875 C 104.550781 -170.421875 114.03125 -156.199219 114.03125 -132.496094 C 114.03125 -108.792969 106.046875 -94.570312 82.34375 -94.570312 L 76.355469 -94.570312 C 68.867188 -94.570312 67.621094 -93.070312 60.136719 -75.855469 L 82.34375 -75.855469 C 110.789062 -75.855469 151.710938 -85.085938 151.710938 -132.496094 C 151.710938 -179.90625 109.289062 -189.386719 80.84375 -189.386719 Z M 80.84375 -189.386719 "/></g></g></g><g fill="#ff9900" fill-opacity="1"><g transform="translate(327.928645, 234.303691)"><g><path d="M 46.113281 -64.675781 C 39.285156 -64.675781 33.535156 -57.851562 23.355469 -47.667969 L 23.355469 -54.496094 C 23.355469 -59.527344 19.285156 -63.597656 14.253906 -63.597656 L 4.070312 -63.597656 C 5.148438 -61.324219 6.226562 -53.296875 6.226562 -46.472656 L 6.226562 -8.984375 C 6.226562 -3.953125 10.300781 0.121094 15.332031 0.121094 L 25.632812 0.121094 C 24.433594 -2.15625 23.355469 -10.179688 23.355469 -17.007812 L 23.355469 -40.84375 C 35.8125 -53.296875 39.285156 -52.21875 39.285156 -41.921875 C 39.285156 -39.523438 41.921875 -37.96875 44.195312 -38.925781 L 56.292969 -49.945312 C 56.292969 -54.496094 56.292969 -64.675781 46.113281 -64.675781 Z M 46.113281 -64.675781 "/></g></g></g><g fill="#ff9900" fill-opacity="1"><g transform="translate(383.383037, 234.303691)"><g><path d="M 23.355469 -54.496094 C 23.355469 -59.527344 19.285156 -63.597656 14.253906 -63.597656 L 4.070312 -63.597656 C 5.148438 -61.324219 6.226562 -53.296875 6.226562 -46.472656 L 6.226562 -8.984375 C 6.226562 -3.953125 10.300781 0.121094 15.332031 0.121094 L 25.632812 0.121094 C 24.433594 -2.15625 23.355469 -10.179688 23.355469 -17.007812 Z M 13.652344 -74.976562 C 19.402344 -75.097656 22.039062 -76.414062 28.265625 -90.785156 L 19.523438 -90.785156 C 13.773438 -90.667969 11.019531 -89.351562 4.910156 -74.976562 Z M 13.652344 -74.976562 "/></g></g></g><g fill="#ff9900" fill-opacity="1"><g transform="translate(413.206249, 234.303691)"><g><path d="M 57.492188 -63.597656 L 45.753906 -63.597656 C 49.945312 -59.285156 49.105469 -54.015625 46.832031 -47.070312 L 46.230469 -45.394531 L 34.972656 -13.175781 L 19.644531 -57.492188 C 18.324219 -61.082031 14.851562 -63.597656 11.019531 -63.597656 L 0.480469 -63.597656 L 19.402344 -9.101562 C 21.320312 -3.59375 26.46875 0.121094 32.21875 0.121094 L 41.679688 0.121094 L 61.800781 -57.492188 C 62.878906 -60.484375 60.605469 -63.597656 57.492188 -63.597656 Z M 57.492188 -63.597656 "/></g></g></g><g fill="#ff9900" fill-opacity="1"><g transform="translate(475.60742, 234.303691)"><g><path d="M 55.933594 -16.886719 L 55.933594 -37.488281 C 55.8125 -55.695312 46.230469 -64.796875 30.300781 -64.796875 C 7.664062 -64.796875 2.277344 -48.867188 10.660156 -44.195312 C 10.660156 -49.707031 17.488281 -54.136719 24.671875 -54.136719 C 32.21875 -54.136719 36.410156 -50.785156 38.085938 -44.792969 C 21.4375 -38.328125 2.636719 -32.339844 2.636719 -16.886719 C 2.636719 -7.785156 9.34375 1.316406 19.882812 1.316406 C 26.230469 1.316406 34.496094 -4.070312 35.570312 -13.535156 C 28.386719 -7.785156 19.644531 -9.460938 19.644531 -20.359375 C 19.644531 -30.183594 30.78125 -37.007812 38.804688 -40.003906 C 38.925781 -39.164062 38.925781 -38.328125 38.925781 -37.488281 L 38.925781 -8.863281 C 38.925781 -3.832031 43 0.238281 48.027344 0.238281 L 58.210938 0.238281 C 57.132812 -2.035156 55.933594 -10.0625 55.933594 -16.886719 Z M 55.933594 -16.886719 "/></g></g></g><g fill="#ff9900" fill-opacity="1"><g transform="translate(537.17018, 234.303691)"><g><path d="M 35.214844 -10.300781 C 26.949219 -10.300781 18.445312 -17.605469 18.445312 -31.738281 C 18.445312 -49.945312 25.511719 -56.773438 31.738281 -56.773438 C 39.40625 -56.773438 44.914062 -45.394531 38.445312 -35.570312 C 40.722656 -36.648438 43.476562 -37.007812 50.304688 -40.363281 C 57.492188 -44.074219 55.933594 -64.675781 31.140625 -64.675781 C 11.617188 -64.675781 2.277344 -49.347656 2.277344 -31.738281 C 2.277344 -14.132812 11.976562 1.199219 31.621094 1.199219 C 39.523438 1.199219 46.230469 -2.277344 49.585938 -6.828125 C 53.539062 -11.976562 52.460938 -17.726562 49.226562 -20.960938 C 47.550781 -14.851562 42.757812 -10.300781 35.214844 -10.300781 Z M 35.214844 -10.300781 "/></g></g></g><g clip-path="url(#7655e6f136)"><g fill="#ff9900" fill-opacity="1"><g transform="translate(593.94206, 234.303691)"><g><path d="M 62.28125 -57.730469 C 63.359375 -60.605469 61.203125 -63.597656 58.210938 -63.597656 L 45.511719 -63.597656 C 50.066406 -59.046875 48.269531 -51.144531 46.351562 -45.394531 L 35.691406 -12.695312 L 19.761719 -57.371094 C 18.566406 -61.082031 15.089844 -63.597656 11.140625 -63.597656 L -0.957031 -63.597656 L 19.523438 -9.34375 C 21.078125 -4.429688 25.390625 -0.839844 30.421875 -0.121094 L 22.398438 19.164062 C 18.925781 27.1875 21.558594 31.859375 28.144531 31.859375 L 41.082031 31.859375 C 37.847656 28.746094 34.253906 21.796875 36.890625 13.414062 Z M 62.28125 -57.730469 "/></g></g></g></g><g fill="#000000" fill-opacity="1"><g transform="translate(684.661765, 241.539931)"><g><path d="M 142.726562 -189.386719 L 128.503906 -189.386719 C 133.246094 -175.164062 133.246094 -151.460938 133.246094 -151.460938 L 133.246094 -52.398438 L 60.136719 -179.40625 C 55.394531 -186.890625 47.910156 -189.386719 38.925781 -189.386719 L 10.230469 -189.386719 C 14.722656 -175.164062 14.722656 -151.460938 14.722656 -151.460938 L 14.722656 -9.480469 C 14.722656 -4.242188 18.964844 0 24.203125 0 L 43.167969 0 C 38.425781 -14.222656 38.425781 -37.925781 38.425781 -37.925781 L 38.425781 -140.730469 L 122.265625 2.496094 L 156.949219 -23.457031 L 156.949219 -175.164062 C 156.949219 -182.898438 150.460938 -189.386719 142.726562 -189.386719 Z M 142.726562 -189.386719 "/></g></g></g><g fill="#ff9900" fill-opacity="1"><g transform="translate(852.242483, 221.577931)"><g><path d="M 32.9375 -64.675781 C 11.257812 -64.675781 2.277344 -49.347656 2.277344 -31.738281 C 2.277344 -14.132812 11.257812 1.199219 32.9375 1.199219 C 54.496094 1.199219 63.597656 -14.132812 63.597656 -31.738281 C 63.597656 -49.347656 54.496094 -64.675781 32.9375 -64.675781 Z M 32.9375 -5.628906 C 26.109375 -5.628906 21.558594 -13.535156 21.558594 -31.738281 C 21.558594 -49.945312 26.109375 -57.851562 32.9375 -57.851562 C 39.765625 -57.851562 44.316406 -49.945312 44.316406 -31.738281 C 44.316406 -13.535156 39.765625 -5.628906 32.9375 -5.628906 Z M 32.9375 -5.628906 "/></g></g></g><g fill="#ff9900" fill-opacity="1"><g transform="translate(918.236811, 221.577931)"><g><path d="M 28.863281 -24.914062 L 28.863281 -54.496094 L 36.289062 -54.496094 C 39.285156 -54.496094 41.921875 -56.292969 43 -59.046875 L 44.792969 -63.597656 L 28.863281 -63.597656 L 28.863281 -77.253906 C 28.863281 -82.164062 24.792969 -86.234375 19.761719 -86.234375 L 9.582031 -86.234375 C 10.660156 -83.960938 11.855469 -76.054688 11.855469 -69.226562 L 11.855469 -63.480469 L 6.226562 -63.480469 C 3.234375 -63.480469 0.597656 -61.683594 -0.597656 -58.929688 L -2.277344 -54.496094 L 11.855469 -54.496094 L 11.855469 -22.636719 C 11.855469 -3.355469 19.882812 1.316406 28.863281 1.199219 C 34.855469 1.199219 41.320312 -1.078125 45.992188 -6.828125 C 32.339844 -4.550781 28.863281 -15.210938 28.863281 -24.914062 Z M 28.863281 -24.914062 "/></g></g></g><g fill="#ff9900" fill-opacity="1"><g transform="translate(962.31288, 221.577931)"><g><path d="M 23.355469 -54.496094 C 23.355469 -59.527344 19.285156 -63.597656 14.253906 -63.597656 L 4.070312 -63.597656 C 5.148438 -61.324219 6.226562 -53.296875 6.226562 -46.472656 L 6.226562 -8.984375 C 6.226562 -3.953125 10.300781 0.121094 15.332031 0.121094 L 25.632812 0.121094 C 24.433594 -2.15625 23.355469 -10.179688 23.355469 -17.007812 Z M 13.652344 -74.976562 C 19.402344 -75.097656 22.039062 -76.414062 28.265625 -90.785156 L 19.523438 -90.785156 C 13.773438 -90.667969 11.019531 -89.351562 4.910156 -74.976562 Z M 13.652344 -74.976562 "/></g></g></g><g fill="#ff9900" fill-opacity="1"><g transform="translate(992.136092, 221.577931)"><g><path d="M 38.328125 -93.0625 C 21.558594 -93.0625 14.132812 -82.042969 12.457031 -63.597656 L 12.097656 -63.597656 L 12.097656 -63.480469 L 6.46875 -63.480469 C 3.472656 -63.480469 0.839844 -61.683594 -0.359375 -58.929688 L -2.035156 -54.496094 L 12.097656 -54.496094 L 12.097656 -8.625 C 12.097656 -3.832031 15.929688 0.121094 20.71875 0.121094 L 31.378906 0.121094 C 30.183594 -2.15625 29.105469 -10.179688 29.105469 -17.007812 L 29.105469 -54.496094 L 36.53125 -54.496094 C 39.40625 -54.496094 42.160156 -56.292969 43.238281 -59.046875 L 45.035156 -63.597656 L 29.105469 -63.597656 L 29.105469 -70.90625 C 29.105469 -79.289062 29.582031 -84.320312 35.691406 -82.164062 C 37.367188 -81.566406 39.285156 -80.488281 41.921875 -78.691406 C 44.316406 -77.011719 47.667969 -76.054688 49.226562 -78.570312 L 55.335938 -88.511719 C 48.507812 -93.0625 40.601562 -93.0625 38.328125 -93.0625 Z M 38.328125 -93.0625 "/></g></g></g><g fill="#ff9900" fill-opacity="1"><g transform="translate(1039.206457, 221.577931)"><g><path d="M 23.355469 -54.496094 C 23.355469 -59.527344 19.285156 -63.597656 14.253906 -63.597656 L 4.070312 -63.597656 C 5.148438 -61.324219 6.226562 -53.296875 6.226562 -46.472656 L 6.226562 -8.984375 C 6.226562 -3.953125 10.300781 0.121094 15.332031 0.121094 L 25.632812 0.121094 C 24.433594 -2.15625 23.355469 -10.179688 23.355469 -17.007812 Z M 13.652344 -74.976562 C 19.402344 -75.097656 22.039062 -76.414062 28.265625 -90.785156 L 19.523438 -90.785156 C 13.773438 -90.667969 11.019531 -89.351562 4.910156 -74.976562 Z M 13.652344 -74.976562 "/></g></g></g><g fill="#ff9900" fill-opacity="1"><g transform="translate(1069.029658, 221.577931)"><g><path d="M 34.734375 -10.300781 C 28.625 -10.300781 22.757812 -14.253906 20 -21.796875 C 27.070312 -22.757812 54.855469 -24.671875 54.855469 -45.273438 C 54.855469 -56.773438 45.632812 -64.675781 31.738281 -64.675781 C 12.214844 -64.675781 2.277344 -49.347656 2.277344 -31.738281 C 2.277344 -14.132812 11.976562 1.199219 31.621094 1.199219 C 39.523438 1.199219 46.710938 -2.277344 50.183594 -6.828125 C 54.015625 -11.976562 53.65625 -17.726562 50.425781 -20.960938 C 48.746094 -14.851562 42.28125 -10.300781 34.734375 -10.300781 Z M 18.445312 -31.738281 C 18.445312 -49.945312 25.03125 -56.773438 31.140625 -56.773438 C 36.769531 -56.773438 39.644531 -53.296875 39.644531 -45.273438 C 39.644531 -37.96875 33.894531 -30.542969 18.925781 -25.992188 C 18.566406 -27.785156 18.445312 -29.703125 18.445312 -31.738281 Z M 18.445312 -31.738281 "/></g></g></g><g fill="#ff9900" fill-opacity="1"><g transform="translate(1126.280636, 221.577931)"><g><path d="M 46.113281 -64.675781 C 39.285156 -64.675781 33.535156 -57.851562 23.355469 -47.667969 L 23.355469 -54.496094 C 23.355469 -59.527344 19.285156 -63.597656 14.253906 -63.597656 L 4.070312 -63.597656 C 5.148438 -61.324219 6.226562 -53.296875 6.226562 -46.472656 L 6.226562 -8.984375 C 6.226562 -3.953125 10.300781 0.121094 15.332031 0.121094 L 25.632812 0.121094 C 24.433594 -2.15625 23.355469 -10.179688 23.355469 -17.007812 L 23.355469 -40.84375 C 35.8125 -53.296875 39.285156 -52.21875 39.285156 -41.921875 C 39.285156 -39.523438 41.921875 -37.96875 44.195312 -38.925781 L 56.292969 -49.945312 C 56.292969 -54.496094 56.292969 -64.675781 46.113281 -64.675781 Z M 46.113281 -64.675781 "/></g></g></g></svg>